<svg width="20" height="20" viewBox="0 0 20 20" fill="none" xmlns="http://www.w3.org/2000/svg">
<path d="M4.99902 17.5L2.49902 20L0 17.5L2.49902 15.001L4.99902 17.5ZM11.7168 14.2178L14.999 17.501L12.499 20L9.99902 17.501L7.49902 20L4.99902 17.501L7.49902 15L9.99902 12.501L11.7168 14.2178ZM19.999 17.501L17.5 20L15 17.501L17.5 15.001L19.999 17.501ZM4.99902 12.5L2.49902 15L0 12.5L2.49902 10.001L4.99902 12.5ZM19.999 12.5L17.5 15L15 12.5L17.5 10.001L19.999 12.5ZM12.499 10L9.99902 12.5L7.5 10L9.99902 7.50098L12.499 10ZM4.99902 7.5L2.49902 9.99902L0 7.5L2.49902 5L4.99902 7.5ZM19.999 7.5L17.5 9.99902L15 7.5L17.5 5.00098L19.999 7.5ZM14.999 2.5L12.042 5.45605L9.99902 7.5L4.99902 2.5L7.49902 0L9.99902 2.5L12.499 0L14.999 2.5ZM4.99902 2.5L2.49902 4.99902L0 2.5L2.49902 0.000976562L4.99902 2.5ZM19.999 2.5L17.5 4.99902L15 2.5L17.5 0.000976562L19.999 2.5Z" fill="#EC104B"/>
</svg>
